<?xml version="1.0" standalone="no"?>
<!DOCTYPE svg PUBLIC "-//W3C//DTD SVG 20010904//EN"
 "http://www.w3.org/TR/2001/REC-SVG-20010904/DTD/svg10.dtd">
<svg version="1.0" xmlns="http://www.w3.org/2000/svg"
 width="256.000000pt" height="256.000000pt" viewBox="0 0 256.000000 256.000000"
 preserveAspectRatio="xMidYMid meet" style="fill-opacity: .04">

<g transform="translate(0.000000,256.000000) scale(0.100000,-0.100000)"
fill="#000000" stroke="none">
<path d="M1255 2547 c-122 -41 -248 -155 -324 -292 -74 -134 -63 -123 -118
-114 -80 13 -283 10 -358 -6 -150 -32 -261 -116 -304 -228 -11 -32 -21 -73
-21 -92 0 -24 -5 -35 -19 -40 -33 -10 -99 -91 -107 -130 -15 -84 15 -159 84
-206 29 -19 48 -24 102 -24 l66 0 47 -68 47 -67 -54 -78 c-193 -276 -217 -524
-65 -667 101 -94 236 -130 459 -122 80 2 152 8 160 11 12 5 23 -9 44 -51 76
-157 190 -282 306 -337 56 -27 76 -31 145 -31 95 0 157 25 245 97 43 34 60 43
75 37 62 -24 160 4 207 59 46 55 57 118 33 197 -6 19 -2 20 116 17 465 -12
653 244 465 633 -24 50 -67 121 -95 160 -28 38 -51 72 -51 75 0 3 23 37 51 75
28 39 71 111 95 160 116 240 94 426 -66 541 -38 27 -50 42 -50 62 -1 62 -63
149 -123 171 -44 17 -114 13 -157 -9 -40 -20 -83 -69 -94 -106 -5 -18 -18 -22
-90 -30 l-84 -9 -22 45 c-74 151 -194 286 -302 340 -79 38 -176 49 -243 27z
m172 -132 c20 -9 57 -32 81 -52 79 -64 199 -248 170 -258 -7 -2 -62 -20 -123
-38 -60 -19 -132 -43 -160 -54 l-50 -20 -100 37 c-55 21 -132 46 -172 56 -40
10 -73 22 -73 28 0 22 84 149 136 205 93 100 197 135 291 96z m799 -271 c37
-55 -25 -117 -80 -80 -30 19 -35 65 -10 90 25 25 71 20 90 -10z m-1425 -130
c15 -4 14 -12 -7 -82 -13 -42 -34 -125 -45 -185 l-22 -108 -76 -63 c-42 -35
-107 -93 -146 -130 -38 -36 -70 -66 -71 -66 0 0 -18 25 -39 56 -36 52 -38 58
-27 88 31 86 2 186 -68 232 -31 21 -40 33 -40 56 0 103 107 185 271 208 60 8
234 4 270 -6z m1316 -83 c59 -17 95 -13 149 14 27 14 52 25 56 25 16 0 71 -56
88 -91 28 -54 26 -145 -5 -233 -23 -66 -94 -194 -136 -245 l-20 -25 -82 81
c-64 62 -193 175 -204 178 -1 0 -13 56 -27 125 -14 69 -34 152 -46 184 -11 33
-17 62 -14 65 3 3 31 8 62 11 56 5 58 5 99 -37 24 -24 58 -46 80 -52z m-1044
23 c53 -15 97 -31 97 -35 0 -5 -28 -23 -62 -40 -34 -17 -98 -53 -141 -80 -43
-27 -81 -49 -84 -49 -8 0 4 55 34 153 20 68 30 86 42 83 9 -3 60 -17 114 -32z
m711 -95 c15 -55 25 -103 23 -106 -3 -2 -29 11 -59 30 -29 19 -96 57 -148 85
l-94 51 29 11 c17 7 68 22 115 35 72 19 87 21 96 9 6 -8 23 -59 38 -115z
m-299 -73 c68 -35 176 -98 239 -139 l115 -76 7 -48 c11 -62 11 -424 0 -486
l-7 -48 -115 -76 c-121 -80 -352 -203 -380 -203 -52 0 -470 247 -496 292 -18
33 -18 523 0 556 26 45 443 291 495 292 9 0 73 -29 142 -64z m-1253 -143 c37
-33 11 -103 -39 -103 -28 0 -63 33 -63 60 0 26 34 60 62 60 12 0 30 -7 40 -17z
m473 -363 c0 -93 -3 -170 -6 -170 -3 0 -45 38 -95 85 l-89 85 89 85 c50 47 92
85 96 85 3 0 5 -76 5 -170z m1373 91 c45 -43 82 -84 82 -91 0 -13 -159 -170
-172 -170 -5 0 -8 77 -8 170 0 94 3 170 8 170 4 0 44 -35 90 -79z m-1573 -257
c39 -37 104 -95 146 -130 l76 -63 22 -108 c11 -60 32 -143 45 -186 l24 -77
-22 -5 c-105 -21 -287 -11 -379 22 -60 22 -125 76 -143 120 -31 73 -12 198 46
313 18 36 109 180 114 180 0 0 33 -30 71 -66z m1804 -15 c77 -117 113 -208
119 -300 4 -62 1 -82 -16 -115 -45 -87 -130 -129 -300 -149 -58 -6 -213 3
-231 14 -8 5 -5 25 9 67 12 32 32 115 46 184 14 69 26 125 27 126 16 6 168
139 217 188 35 36 67 66 70 66 3 0 30 -36 59 -81z m-1342 -338 c43 -27 107
-63 141 -80 34 -17 62 -35 62 -40 0 -8 -220 -74 -226 -68 -1 1 -13 38 -27 82
-28 88 -42 155 -34 155 3 0 41 -22 84 -49z m843 40 c0 -11 -45 -167 -59 -203
l-10 -27 -88 24 c-48 13 -101 29 -118 35 l-29 11 94 51 c52 27 117 65 145 83
53 36 65 40 65 26z m-289 -298 l86 -27 -31 -44 c-28 -40 -31 -50 -31 -124 0
-79 0 -81 -35 -110 -121 -103 -253 -88 -374 43 -51 55 -136 183 -136 205 0 5
39 20 88 33 48 13 125 38 172 56 l85 33 45 -19 c25 -10 84 -31 131 -46z m259
-155 c13 -25 13 -31 0 -55 -30 -53 -110 -34 -110 25 0 63 79 84 110 30z"/>
<path d="M1255 1587 c-91 -30 -157 -88 -197 -172 -58 -123 -28 -279 72 -369
67 -60 121 -81 215 -81 67 0 89 4 137 28 62 30 115 83 150 149 19 36 23 58 23
138 0 106 -15 147 -81 220 -73 80 -218 120 -319 87z"/>
</g>
</svg>
